<?xml version="1.0" encoding="UTF-8"?>
<svg fill="currentColor" id="Capa_2" data-name="Capa 2" xmlns="http://www.w3.org/2000/svg" viewBox="0 0 711.33 341.9">
  <defs>
    <style>
      .cls-1 {
        stroke-width: 0px;
      }
    </style>
  </defs>
  <g id="Capa_1-2" data-name="Capa 1">
    <g>
      <g>
        <g>
          <path class="cls-1" d="m88.45,104.11v-2.92c14.87-1.75,29.75-16.92,29.75-46.37v-1.46c0-32.37-19.25-50.45-53.08-50.45H15.25v218.28s106.73,7.96,106.73-64.88v-3.21c0-29.46-18.37-47.54-33.54-48.99ZM56.07,38.5h8.46c9.33,0,12.83,4.37,12.83,14.87v16.91c0,10.5-3.5,14.58-12.83,14.58h-8.46v-46.37Zm22.75,123.22c0,10.79-3.79,15.17-13.42,15.17h-9.33v-56.43h9.04c9.62,0,13.71,4.66,13.71,15.46v25.81Z"/>
          <path class="cls-1" d="m181.77,2.92c-31.79,0-52.2,17.21-52.2,53.08v95.22c0,35.87,10.95,58.43,52.2,53.37,32.13-3.94,53.36-17.79,53.36-53.37V56c0-35.29-20.99-53.08-53.36-53.08Zm12.54,151.21c0,11.08-5.54,15.16-11.96,15.16s-11.96-4.08-11.96-15.16V53.37c0-11.37,5.83-14.87,11.96-14.87s11.96,3.5,11.96,14.87v100.76Z"/>
          <polygon class="cls-1" points="285.58 87.49 289.66 87.49 305.7 2.92 349.15 2.92 323.2 104.99 348.04 194.62 305.75 195.42 289.66 122.78 285.58 122.78 285.58 196.22 244.75 198.66 244.75 2.92 285.58 2.92 285.58 87.49"/>
          <path class="cls-1" d="m408.47,2.92h-51.33v191.7l52.2,1c31.79,0,52.2-4.31,52.2-39.3V53.66c0-35-21.29-50.74-53.08-50.74Zm12.25,144.96c0,11.38-5.25,14.58-12.54,14.58h-9.91V38.5h9.91c7.29,0,12.54,3.21,12.54,14.58v94.8Z"/>
          <path class="cls-1" d="m523.07,3.25c-31.79,0-52.2,13.96-52.2,49.83v103.53c0,35.87,19.44,43.98,51.92,46.98,39.59,3.66,53.65-11.4,53.65-46.98V53.08c0-35.29-21-49.83-53.37-49.83Zm12.54,156.27c0,11.08-5.54,15.17-11.96,15.17s-11.96-4.08-11.96-15.17V57.29c0-11.37,5.83-14.87,11.96-14.87s11.96,3.5,11.96,14.87v102.23Z"/>
          <path class="cls-1" d="m650.22,79.13v-26.07c0-10.12-4.37-15.64-11.67-15.64s-11.37,5.52-11.37,15.64v14.42c0,12.88,2.92,17.48,25.66,28.83l9.91,4.6c21.58,10.43,28.87,25.15,28.87,58.58v4.91c0,35.88-19.83,56.43-53.66,56.43s-52.2-19.93-52.2-56.43v-22.7h40.83v26.07c0,10.12,4.37,15.64,11.96,15.64s11.96-5.52,11.96-15.33v-15.64c0-12.88-3.21-17.17-24.21-27.91l-11.08-5.21c-21.87-10.74-28.87-26.07-28.87-59.5v-3.68c0-36.19,18.66-56.13,51.62-56.13s53.08,20.55,53.08,56.13v23h-40.83Z"/>
        </g>
        <path class="cls-1" d="m546.99,269.94c-2.29,0-4.45,1.29-4.45,5.04v21.92c0,3.75,2.17,5.04,4.45,5.04s4.45-1.29,4.45-5.04v-21.92c0-3.75-2.23-5.04-4.45-5.04Z"/>
      </g>
      <path class="cls-1" d="m662.88,292.93c1.45-.17,2.92-.25,4.38-.28,13.47-.32,26.94-.63,40.42-.94.49-.01.98.02,1.46-.03,1.02-.1,2.25.15,2.19-1.58-.06-1.64-1.25-1.2-2.12-1.23-4.29-.13-8.59-.21-12.89-.28-10.25-.17-20.51-.31-30.76-.48-.87-.01-1.76-.06-2.62-.21-.85-.15-1.37-.76-1.41-1.64-.05-1.03.54-1.68,1.49-1.87.76-.15,1.55-.11,2.34-.12,14.35-.24,28.71-.47,43.06-.7.29,0,.59,0,.88,0,.99,0,1.99.08,2.02-1.41.03-1.53-1.01-1.4-1.98-1.43-6.25-.17-12.49-.34-18.74-.5-8.59-.21-17.18-.4-25.77-.63-1.38-.04-3.35.37-3.27-1.85.08-2.18,2.06-1.65,3.41-1.68,14.54-.4,29.09-.75,43.63-1.16.86-.02,2.35.68,2.23-1.29-.08-1.32-.44-2.11-2.02-2.24-19.07-1.58-38.12-3.17-57.28-3.61-8.68-.2-15.79,2.29-21.22,8.89-3.06,3.73-6.59,4.67-11.06,4.64v-23.39h-148.41v-36.46c-24.45-13.22-209.11-13.22-254.94,0v36.46H73.7v25.37c-1.88.11-4.24.22-7.75.34-2.16.07-3.42-.45-4.65-2.35-4.75-7.36-10.94-12.73-20.21-13.33-7.19-.47-14.3.12-21.28,1.89-5.32,1.34-10.42,3.24-14.65,6.91-6.71,5.81-6.89,14.65-.44,20.72,2.01,1.89,4.32,3.32,6.82,4.44,8.09,3.61,16.64,4.87,25.42,4.92,3.55.02,7.09-.19,10.46-1.44,6.38-2.37,10.82-6.99,14.36-12.58.77-1.21,1.59-1.74,3.04-1.63,2.2.17,4.42.12,6.63.18.82.02,1.56.05,2.24.07v22.94h142.23v27.55h254.94v-27.55h148.41v-23.1c.96-.04,2.06-.08,3.36-.12,2.14-.07,3.66.59,5.15,2.1,10.8,10.99,12.44,11.52,27.83,11.21,17.29-.35,34.5-1.88,51.72-3.35.68-.06,1.35-.22,2.03-.26,1.24-.07,1.29-.87,1.32-1.83.03-1.14-.47-1.57-1.55-1.58-2.15-.03-4.29-.14-6.44-.19-12.2-.29-24.41-.56-36.61-.85-1.07-.03-2.15-.06-3.21-.22-.86-.12-1.36-.71-1.37-1.63,0-.93.51-1.51,1.37-1.61Zm-550.69,16.2h-15.91v-43.68h15.6v5.43h-9.36v12.79h9.05v5.43h-9.05v14.6h9.67v5.43Zm24.58-10.61c0,7.05-4.12,11.23-11.04,11.23s-10.86-4.12-10.86-11.23v-5.3h6.24v5.74c0,3.37,1.75,5.37,4.68,5.37s4.74-2,4.74-5.37v-2.62c0-3.37-1.25-4.93-5.99-6.86l-2.74-1c-4.87-1.93-6.8-5.18-6.8-11.48v-.94c0-7.18,3.93-11.23,10.73-11.23s10.92,4.18,10.92,11.23v5.3h-6.24v-5.74c0-3.37-1.75-5.37-4.62-5.37s-4.55,2-4.55,5.37v2.43c0,3.37,1.19,4.93,6.11,6.93l2.5.94c5.05,1.93,6.93,4.99,6.93,11.42v1.19Zm15.1,10.61h-6.24v-38.25h-7.18v-5.43h20.59v5.43h-7.18v38.25Zm8.73.31c-2.31,0-3.49-1.37-3.49-3.68s1.19-3.62,3.49-3.62,3.49,1.37,3.49,3.68-1.19,3.62-3.49,3.62Zm152.05-77.62c-1.71,3.26-1.83,5.21-1.82,11.71l.12,42.59c.09,32.84-15.56,50.44-36.79,50.5-35.09.1-38.6-29.32-35.33-38.76,1.57-4.55,4.73-8.46,8.81-9.61,7.25-1.97,10.95,1.76,13.34,7.93,3.32,8.6,2.97,24.7,10.49,26.47,8.71,2.09,11.32-8.97,11.25-33.2l-.12-45.84c-.02-6.5-.16-8.45-1.88-11.7-2.52-4.38-3.31-4.87-3.31-6.98.26-2.59,1.56-3.73,4.56-3.75,7.98-.02,21.02-.05,29-.08,3.26-.1,4.67,1.03,4.95,3.72,0,2.11-.79,2.61-3.28,7Zm129.16,102.71l-32.97.09c-3.04,0-4.49-1.13-4.63-3.73-.14-2.28.65-2.6,3.15-7,1.31-2.44,2.5-3.59,1.42-11.06l-7.4-51.84c-.27-1.46-1.85-1.46-2.11-.15l-18.41,68.82c-.65,2.93-2.89,5.05-5.4,5.05h-4.22c-2.51.02-4.75-2.09-5.42-5.01l-18.13-68.72c-.26-1.3-1.85-1.29-1.98,0l-7.11,52.04c-1.03,7.48.02,8.61,1.35,11.05,2.52,4.38,3.31,4.7,3.31,6.98-.26,2.6-1.57,3.74-4.6,3.75-.13,0-16.35.05-16.35.05-3.04,0-4.49-1.13-4.63-3.73-.01-5.04,6.31-7.01,8-18.72l9.44-68.96c.9-6.5.37-8.45-1.48-11.7-2.52-4.38-3.31-4.87-3.18-6.98.12-2.6,1.57-3.74,4.6-3.75l29.15-.08c1.98,0,3.83,1.61,4.36,4.05l10.97,54.43c.27,1.3,1.72,1.46,1.98.16l13.57-54.66c.65-2.44,1.44-4.07,4.47-4.08l29.02-.08c3.04-.01,4.36,1.12,4.63,3.72,0,2.11-.79,2.61-3.28,7-1.71,3.26-2.36,5.21-1.42,11.71l9.95,68.9c1.62,11.86,7.96,13.63,7.97,18.67-.12,2.6-1.44,3.74-4.61,3.75Zm91.75-58.27c0,6.74-2.64,11.14-6.8,13.71l-.94.59c-4.75,2.99-6.74,4.63-6.74,8.73v1.58h14.18v5.57h-20.04v-6.1c0-7.21,2.46-9.96,7.27-13.01l.88-.53c4.34-2.7,6.33-4.22,6.33-8.38v-3.46c0-3.17-1.58-5.04-4.28-5.04s-4.34,1.87-4.34,5.04v6.86h-5.86v-6.45c0-6.62,3.81-10.55,10.26-10.55s10.08,3.81,10.08,10.55v.88Zm23.73,20.22c0,7.27-4.45,10.55-10.43,10.55s-10.2-3.22-10.2-10.55v-21.1c0-7.38,4.34-10.55,10.2-10.55s10.43,3.28,10.43,10.55v21.1Zm23.27-20.22c0,6.74-2.64,11.14-6.8,13.71l-.94.59c-4.75,2.99-6.74,4.63-6.74,8.73v1.58h14.18v5.57h-20.04v-6.1c0-7.21,2.46-9.96,7.27-13.01l.88-.53c4.34-2.7,6.33-4.22,6.33-8.38v-3.46c0-3.17-1.58-5.04-4.28-5.04s-4.34,1.87-4.34,5.04v6.86h-5.86v-6.45c0-6.62,3.81-10.55,10.26-10.55s10.08,3.81,10.08,10.55v.88Zm22.33,30.18h-5.86v-12.37h-13.3v-28.66h5.86v23.56h7.44v-23.56h5.86v41.02Z"/>
    </g>
  </g>
</svg>