<?xml version="1.0" encoding="UTF-8"?>
<svg id="Capa_2" data-name="Capa 2" xmlns="http://www.w3.org/2000/svg" viewBox="0 0 689.72 394.12">
  <defs>
    <style>
      .cls-1 {
        fill: #000000ff;
        stroke-width: 0px;
      }
    </style>
  </defs>
  <g id="Capa_1-2" data-name="Capa 1">
    <g>
      <path class="cls-1" d="m88.7,193.56v-47.44h-34.97v54.59l30.09-6.16c1.59-.33,3.23-.66,4.87-.98Z"/>
      <path class="cls-1" d="m55.11,232.92c-3.24-4.53-5.51-8.64-6.95-12.56l-.14-.4-3.23-6.49c-5.78-.05-7.61-3.36-7.61-11.03V45.64c0-7.36,2.58-11.04,8.1-11.04s8.47,3.68,8.47,11.04v43.43h34.97v-41.96C88.7,13.62,72.88,0,44.53,0,14.72,0,0,15.46,0,47.48v152.01c0,30.92,15.46,48.22,44.9,48.22,8.7,0,16.13-1.48,22.29-4.4-5.08-2.79-9.14-6.26-12.09-10.39Z"/>
      <path class="cls-1" d="m168.93,1.47h-52.26l-18.62,190.26c13.9-2.65,29.48-5.35,46.51-8.07,14.48-2.31,28.42-4.11,41.69-5.42L168.93,1.47Zm-33.86,156.79l6.63-94.59h1.47l6.26,94.59h-14.35Z"/>
      <path class="cls-1" d="m222,176.1c5.43,0,10.29.26,14.65.77v-35.17h8.1c5.89,0,8.47,3.68,8.47,10.31v29.09c1.58.72,3.05,1.52,4.41,2.41l1.72,1.13,1.33,1.57c3.53,4.16,5.81,8.75,6.79,13.64.55,2.56.82,5.06.82,7.43,0,1.7-.17,3.58-.54,5.93-.4,2.47-1,4.83-1.81,7.03l-4.79,11.98s.11,7.17,2.84,11.53c4.04-4.28,8.27-7.68,12.73-10.19,4.45-2.53,8.9-4.37,13.31-5.56v-72.69c0-20.24-8.47-27.61-20.61-29.45v-1.47c12.15-2.21,19.88-13.25,19.88-29.44v-54.84c0-24.29-9.57-38.65-36.07-38.65h-53.37v175.61c3.37-.25,6.72-.48,9.99-.65,4.34-.22,8.42-.34,12.17-.34Zm14.65-141.13h7.36c6.26,0,9.2,2.95,9.2,9.57v54.47c0,7.73-2.94,12.15-9.2,12.15h-7.36V34.97Z"/>
      <path class="cls-1" d="m316.02,229.24l.21.08c6.6,2.73,11.96,6.88,15.89,12.19.06-.08.1-.15.16-.23l3.38-51h18.77l2.84,38.93c1.79-.11,3.52-.14,5.11-.14,1.28,0,2.6.05,3.98.14,5,.32,10.16,1.36,15.36,3.12,3.86-12.44,7.06-22.2,9.72-29.54L371.72,1.47h-52.26l-22.04,225.18c1.32-.13,2.64-.22,3.96-.22,5.03,0,9.96.94,14.65,2.8Zm28.46-165.56h1.47l6.26,94.59h-14.35l6.63-94.59Z"/>
      <path class="cls-1" d="m484.21,187.34c0-4.83,1.55-9.06,4.18-12.24v-28.98h-34.97v56.31c0,7.51-2.8,10.82-8.37,11.01l-.38.9c-4.03,9.53-8.2,20.28-12.48,32.13,3.82.78,7.92,1.23,12.39,1.23,11.49,0,20.75-2.58,27.79-7.67,9.77-30.74,11.83-45.23,11.83-51.95v-.74Z"/>
      <path class="cls-1" d="m411.56,175.57c4.37,0,9.11.86,14.1,2.56,4.24,1.44,7.98,3.6,11.21,6.4V45.64c0-7.36,2.58-11.04,8.1-11.04s8.47,3.68,8.47,11.04v43.43h34.97v-41.96c0-33.49-15.83-47.11-44.17-47.11-29.81,0-44.53,15.46-44.53,47.48l1.96,128.09h9.9Z"/>
      <path class="cls-1" d="m504.46,168.98c5.79.16,10.74,3.36,15.22,6.8,1.83,1.4,3.53,2.97,5.12,4.69,2.64-6.55,8.72-10.81,16.36-10.81.08,0,.9.02,2.45.06,5.79.16,10.74,3.36,15.22,6.8,5,3.83,9.13,8.91,12.28,15.11,2.57,5.03,3.88,10.52,3.88,16.3,0,2.32-.22,4.71-.65,7.09l-.09.48-.12.47c-.73,2.91-1.87,6.69-3.4,11.33,2.27-.7,4.67-1.09,7.17-1.12h.55c3.9,0,7.81.56,11.63,1.68.24.07.48.14.72.22L568.63,1.47h-52.26l-16.4,167.56c.67-.07,1.35-.11,2.04-.11.08,0,.9.02,2.45.06Zm36.93-105.31h1.47l6.26,94.59h-14.35l6.63-94.59Z"/>
      <path class="cls-1" d="m679.41,128.45c-9.2-12.15-25.76-23.56-38.65-38.28-6.63-7.36-7.73-11.04-7.73-24.66v-21.35c0-5.52,2.94-9.57,9.2-9.57,5.89,0,9.2,3.68,9.2,10.67v28.34h34.97v-23.92c0-30.18-11.78-49.69-44.9-49.69-29.45,0-45.27,15.46-45.27,43.06v20.61c0,20.24,3.31,31.65,9.94,43.06,8.47,14.72,22.45,25.76,34.23,38.65,7.36,8.1,9.94,12.51,9.94,30.55v26.87c0,6.63-2.95,10.67-9.57,10.67s-10.31-4.05-10.31-10.67v-30.18h-35.33v27.23c0,9.92,1.41,18.31,4.35,25.17.64-.1,1.27-.21,1.95-.28.96-.14,1.95-.21,2.95-.21,3.24,0,6.65.65,10.14,1.94l.36.14c8.82,3.53,14.08,10.99,14.19,20,4.02.69,8.37,1.08,13.17,1.08,33.13,0,47.48-16.56,47.48-47.48v-32.76c0-19.88-3.31-29.45-10.31-39.01Z"/>
      <path class="cls-1" d="m249.76,198.44c1.97,2.32,3.2,4.75,3.69,7.28.35,1.62.53,3.13.53,4.54,0,.92-.12,2.15-.37,3.7-.25,1.55-.62,2.99-1.11,4.33l-.84,2.11-25.01-1.27c-6.19-.35-12.95-.53-20.26-.53-12.17,0-25.82.46-40.95,1.37,1.48,2.67,2.2,5.35,2.16,8.02-.04,2.67-.33,4.71-.9,6.12-.35.78-2.04,3.8-5.07,9.08-2.95,5.21-6.75,11.93-11.4,20.16,12.59-1.76,21.32-3.52,26.17-5.28,3.31,1.83,5.82,4.91,7.55,9.23,1.72,4.33,2.65,8.78,2.8,13.35v1.27c0,3.87-.56,6.83-1.69,8.87-1.13,1.55-2.67,2.32-4.64,2.32-1.55,0-4.01-.81-7.39-2.43-3.38-1.62-7.07-5.52-11.08-11.72-4.22.99-11.47,1.94-21.74,2.85-9.5,17.45-18.59,35.73-27.28,54.83-8.69,19.1-14.48,35.62-17.36,49.55-.07-.07-.14-.11-.21-.11-2.11-.35-4.8-1.11-8.07-2.27-3.27-1.16-6.23-3.04-8.87-5.65-2.64-2.6-4.1-6.19-4.38-10.76v-.63c0-7.67,3.5-19.14,10.5-34.41,7-15.27,15.46-31.56,25.38-48.87-2.39.07-4.64.11-6.75.11-8.44,0-14.78-.56-19-1.69-1.13-.85-1.92-1.78-2.37-2.8-.46-1.02-.69-2.02-.69-3.01v-.63c0-.7.09-1.41.26-2.11.18-.7.37-1.3.58-1.79l.32-.74,10.87-1.06c7.25-.63,15.97-1.51,26.17-2.64,11.82-19.84,21.14-35.04,27.97-45.59-23.57,2.32-46.4,7.11-68.5,14.35-5.56-2.11-9.57-4.89-12.03-8.34-2.46-3.45-4.19-6.51-5.17-9.18-.21-.63-.42-1.16-.63-1.58l25.75-5.28c17.1-3.52,37.13-7.11,60.11-10.76,22.97-3.66,44.24-6.02,63.8-7.07,4.08-.21,7.88-.32,11.4-.32,13.37,0,22.62,1.69,27.76,5.07Z"/>
      <path class="cls-1" d="m241.11,245.51c8.51,3.52,13.33,10.17,14.46,19.95.28,2.53.42,5.14.42,7.81,0,7.46-1.3,16.01-3.91,25.65-2.6,9.64-5.77,18.36-9.5,26.17-3.87,8.8-10.27,18.05-19.21,27.76-7.11,7.81-14.88,11.72-23.32,11.72-2.04,0-4.15-.25-6.33-.74-8.87-2.74-14.53-10.73-16.99-23.96-.49-2.81-.74-5.84-.74-9.08,0-12.03,3.59-27.02,10.77-44.96,8.37-19,17.48-31.28,27.33-36.83,6.19-3.52,12.07-5.28,17.63-5.28,3.24,0,6.37.6,9.39,1.79Zm-43.17,104.17c5.56-2.18,11.1-8.09,16.62-17.73,5.52-9.64,10.34-20.39,14.46-32.24,4.12-11.85,6.88-22.29,8.29-31.29.49-3.02.74-5.56.74-7.6,0-3.87-.92-5.8-2.74-5.8-2.67,0-7.51,6.19-14.51,18.57-7,12.39-13.03,25.96-18.1,40.74-3.73,10.62-5.59,19.74-5.59,27.33,0,2.89.28,5.56.84,8.02Z"/>
      <path class="cls-1" d="m310.76,245.51c8.51,3.52,13.33,10.17,14.46,19.95.28,2.53.42,5.14.42,7.81,0,7.46-1.3,16.01-3.91,25.65-2.6,9.64-5.77,18.36-9.5,26.17-3.87,8.8-10.27,18.05-19.21,27.76-7.11,7.81-14.88,11.72-23.32,11.72-2.04,0-4.15-.25-6.33-.74-8.87-2.74-14.53-10.73-16.99-23.96-.49-2.81-.74-5.84-.74-9.08,0-12.03,3.59-27.02,10.77-44.96,8.37-19,17.48-31.28,27.33-36.83,6.19-3.52,12.07-5.28,17.63-5.28,3.24,0,6.37.6,9.39,1.79Zm-43.17,104.17c5.56-2.18,11.1-8.09,16.62-17.73,5.52-9.64,10.34-20.39,14.46-32.24,4.12-11.85,6.88-22.29,8.29-31.29.49-3.02.74-5.56.74-7.6,0-3.87-.92-5.8-2.74-5.8-2.67,0-7.51,6.19-14.51,18.57-7,12.39-13.03,25.96-18.1,40.74-3.73,10.62-5.59,19.74-5.59,27.33,0,2.89.28,5.56.84,8.02Z"/>
      <path class="cls-1" d="m411.56,192.85c2.81,0,5.98.6,9.5,1.79,3.52,1.2,6.4,3.17,8.65,5.91,1.55,1.9,2.32,4.22,2.32,6.97,0,1.34-.18,2.74-.53,4.22-8.09,19.14-16.59,42.6-25.49,70.39-8.9,27.79-15.81,55.66-20.74,83.59-1.13.77-2.46,1.16-4.01,1.16-.78,0-2.08-.19-3.91-.58-1.83-.39-3.96-1.71-6.39-3.96-2.43-2.25-3.99-5.35-4.7-9.29v-.84c0-6.76,1.51-16.39,4.54-28.92-8.23,14.35-16.08,25.54-23.54,33.56l-2.32.42c-1.2.21-2.64.32-4.33.32-.42,0-1.3-.02-2.64-.05-1.34-.03-3.22-.49-5.65-1.37-2.43-.88-4.63-2.37-6.6-4.48-3.17-9.22-4.75-18.54-4.75-27.97,0-5.56,1.06-13.49,3.17-23.8,2.11-10.31,5.8-20.74,11.08-31.29,5.28-10.55,8.65-16.53,10.13-17.94,2.39-2.88,8.06-4.33,16.99-4.33.98,0,2,.04,3.06.11,4.5.28,9.16,1.36,13.98,3.22,4.82,1.87,8.6,3.54,11.35,5.01,6.54-21.81,11.64-37.57,15.3-47.28l5.49-14.56Zm-56.25,133.46c5.84-10.31,16.85-31.64,33.03-64.01-1.13-.21-2.25-.32-3.38-.32-10.7,0-21.35,10.34-31.98,31.03-6.19,12.1-10.41,24.91-12.67,38.42-.14,1.55-.21,2.92-.21,4.12,0,4.01.88,6.09,2.64,6.23h.11c2.46,0,6.61-5.15,12.45-15.46Z"/>
      <path class="cls-1" d="m537.68,191.06c0-2.74,1.16-4.12,3.48-4.12.07,0,.76.02,2.06.05,1.3.04,3.6,1.32,6.91,3.85,3.31,2.53,6.05,5.95,8.23,10.24,1.55,3.03,2.32,6.3,2.32,9.82,0,1.48-.14,2.99-.42,4.54-1.97,7.81-7.32,23.11-16.04,45.91-8.51,22.16-16.92,45.49-25.22,69.97-7.74,22.73-11.61,42.39-11.61,59,0,1.27.04,2.5.11,3.69-1.06.07-2.08.11-3.06.11-14.71,0-22.06-4.26-22.06-12.77,0-.42.04-.88.11-1.37.14-2.53,1.58-8.25,4.33-17.15,2.74-8.9,6.65-20.98,11.72-36.25,9.22-25.68,18.08-51.78,26.6-78.31,8.37-26.31,12.56-45.13,12.56-56.46v-.74Z"/>
      <path class="cls-1" d="m498.52,190.32c0-2.74,1.16-4.12,3.48-4.12.07,0,.76.02,2.06.05,1.3.04,3.6,1.32,6.91,3.85,3.31,2.53,6.05,5.95,8.23,10.24,1.55,3.03,2.32,6.3,2.32,9.82,0,1.48-.14,2.99-.42,4.54-1.97,7.81-7.32,23.11-16.04,45.91-8.51,22.16-16.92,45.49-25.22,69.97-7.74,22.73-11.61,42.39-11.61,59,0,1.27.04,2.5.11,3.69-1.06.07-2.08.11-3.06.11-14.71,0-22.06-4.26-22.06-12.77,0-.42.04-.88.11-1.37.14-2.53,1.58-8.25,4.33-17.15,2.74-8.9,6.65-20.98,11.72-36.25,9.22-25.68,18.08-51.78,26.6-78.31,8.37-26.31,12.56-45.13,12.56-56.46v-.74Z"/>
      <path class="cls-1" d="m595.51,248.26l.11-.42c.07-.21.19-.53.37-.95.18-.42.33-.83.48-1.21.14-.39.32-.76.53-1.11.21-.42.84-.93,1.9-1.53s2.5-.97,4.33-1.11c.35-.07.74-.11,1.16-.11,1.55,0,3.27.35,5.17,1.06,3.52,1.41,5.26,3.78,5.22,7.12-.04,3.34-1.14,7.16-3.32,11.45l-.63,1.27c-3.8,7.53-6.3,13.9-7.49,19.1-.49.07-.95.11-1.37.11-2.67,0-5.45-.91-8.34-2.74-2.89-1.83-5-3.94-6.33-6.33-.35-.7-.53-1.58-.53-2.64,0-.63.11-1.62.32-2.96.21-1.34.69-3.01,1.42-5.01.74-2.01,1.46-3.71,2.16-5.12l.95-2.11c-.63.07-2.39,2.23-5.28,6.49-2.89,4.26-6.17,9.83-9.87,16.73-3.69,6.9-7.16,14.32-10.4,22.27-4.79,12.45-7.92,22.76-9.39,30.92-.63,3.52-.95,6.33-.95,8.44,0,2.74.56,4.26,1.69,4.54,4.36-2.67,8.02-6.37,10.98-11.08,2.95-4.71,5.14-9.32,6.54-13.83,1.2-3.73,1.79-6.58,1.79-8.55,0-.42-.04-.77-.11-1.06,1.06-1.2,3.02-1.86,5.91-2.01h.84c2.53,0,5.05.65,7.55,1.95,2.5,1.3,3.99,3.61,4.49,6.91v.95c0,6.26-1.99,13.14-5.96,20.63-3.98,7.49-8.43,14.04-13.35,19.63-4.93,5.59-8.58,8.53-10.98,8.81h-.95c-2.18,0-5.14-.44-8.86-1.32-3.73-.88-7.56-2.64-11.5-5.28-3.94-2.64-6.97-6.52-9.08-11.66v-1.27c0-15.06,2.46-29.85,7.39-44.38,4.92-14.53,10.34-27,16.25-37.41,5.91-10.41,10.24-16.92,12.98-19.53,1.83-1.62,4.08-2.44,6.76-2.48,2.67-.04,5.33.33,7.97,1.11,2.64.78,4.87,1.58,6.7,2.43l2.74,1.27Z"/>
    </g>
  </g>
</svg>