<?xml version="1.0" encoding="UTF-8"?>
<svg id="Capa_2" data-name="Capa 2" xmlns="http://www.w3.org/2000/svg" viewBox="0 0 797.7 236.57">
  <defs>
    <style>
      .cls-1 {
        fill: #f7f8f8;
        stroke-width: 0px;
      }
    </style>
  </defs>
  <g id="Capa_1-2" data-name="Capa 1">
    <g>
      <g>
        <path class="cls-1" d="m357.69,106.77c-23.17,0-38.56-16.57-38.56-39.29s15.39-39,38.56-39c21.98,0,28.78,8.64,34.94,24.24l-19.25,5.97c-1.47-8.06-6.74-13.49-15.98-13.49-11.58,0-18.33,9.24-18.33,22.29s6.74,22.43,18.33,22.43c9.68,0,14.96-6.01,16.42-14.66l20.23,4.97c-5.84,18.83-15.54,26.55-36.36,26.55Z"/>
        <path class="cls-1" d="m477.77,75.25v-6.6c0-23.75-12.32-40.17-36.36-40.17s-37.97,15.84-37.97,39.3,14.51,39,38.12,39c17.89,0,31.23-8.8,35.78-25.95h-15.18c-2.91,0-5.56,1.53-7.22,3.92-3.18,4.6-8.12,6.49-13.53,6.49-9.53,0-16.95-4.4-17.68-15.98h54.04Zm-36.22-34.35c10.26,0,16.28,7.81,16.57,17.78h-33.87c1.17-10.41,7.62-17.78,17.3-17.78Z"/>
        <path class="cls-1" d="m562.59,59.78v45.75h-12.04c-4.77,0-8.63-3.86-8.63-8.63v-32.72c0-10.41-5.13-16.86-13.2-16.86-10.41,0-17.6,7.18-17.6,20.38v37.83h-12.04c-4.77,0-8.63-3.86-8.63-8.63V31.05h20.67v13.78c4.69-10.7,13.2-15.69,23.9-15.69,17.74,0,27.56,12.46,27.56,30.65Z"/>
        <path class="cls-1" d="m600.2,46.95v30.65c0,7.62,4.54,11.73,12.02,11.73.84,0,1.73-.03,2.7-.14,5.07-.55,8.38,3.36,9.47,8.58l1.47,5.55c-4.69,2.49-12.02,3.45-16.86,3.45-17.74,0-29.47-10.41-29.47-26.25v-33.58h-4.71c-4.77,0-8.63-3.86-8.63-8.63v-7.5h.29c8.95,0,13.05-3.67,13.05-12.32v-9.97h20.67v22.29h25.66v16.13h-25.66Z"/>
        <path class="cls-1" d="m685.9,29.8v21.85c-23.9-2.49-32.11,6.01-32.11,25.8v28.01h-12.04c-4.77,0-8.63-3.86-8.63-8.63V30.97h20.67v19.65c4.84-14.81,15.69-20.82,32.11-20.82Z"/>
        <path class="cls-1" d="m729.29,28.77c-19.21,0-32.7,9.24-32.99,25.95h19.65c.59-6.5,5.5-10.77,13.52-10.7,7.13.06,12.87,5.89,12.87,13.02v2.09h-7.33c-31.23,0-42.08,11-42.08,25.37,0,13.2,10.12,21.99,24.63,21.99s21.85-7.62,24.34-11.58h.44v1.64c0,4.77,3.86,8.63,8.63,8.63h11.31v-48.09c0-17.89-11.73-28.3-32.99-28.3Zm13.05,48.24c0,8.21-7.77,14.81-17.59,14.81-6.89,0-11.29-3.37-11.29-8.8,0-6.16,4.84-11.29,21.7-11.29h7.18v5.28Z"/>
        <path class="cls-1" d="m797.7,2.14v102.64h-12.04c-4.77,0-8.63-3.86-8.63-8.63V2.14h20.67Z"/>
        <path class="cls-1" d="m368.95,127.25c-9.97,0-19.21,5.28-23.17,13.34h-.15l.15-11.44h-20.67v95.18c0,4.77,3.86,8.63,8.63,8.63h12.04l-.15-39.88h.15c3.67,7.62,13.05,12.46,23.17,12.46,21.26,0,34.45-16.13,34.45-38.71s-13.19-39.59-34.45-39.59Zm-4.84,61.58c-11.14,0-18.92-8.65-19.06-21.85v-.88c0-13.49,7.77-22.14,19.06-22.14s18.91,8.8,18.91,22.87c0,13.2-7.92,21.99-18.91,21.99Z"/>
        <path class="cls-1" d="m446.69,127.25c-19.21,0-32.7,9.24-32.99,25.95h19.65c.59-6.5,5.5-10.77,13.52-10.7,7.13.06,12.87,5.89,12.87,13.02v2.09h-7.33c-31.23,0-42.08,11-42.08,25.37,0,13.2,10.12,21.99,24.63,21.99s21.85-7.62,24.34-11.58h.44v1.64c0,4.77,3.86,8.63,8.63,8.63h11.31v-48.09c0-17.89-11.73-28.3-32.99-28.3Zm13.05,48.24c0,8.21-7.77,14.81-17.59,14.81-6.89,0-11.29-3.37-11.29-8.8,0-6.16,4.84-11.29,21.7-11.29h7.18v5.28Z"/>
        <path class="cls-1" d="m546.37,129.15v9.24h-.15c-3.81-5.87-11.44-11.15-22.14-11.15-20.53,0-34.46,14.96-34.46,37.1s13.78,37.1,34.6,37.1c10.41,0,18.47-4.69,21.99-10.56h.15v13.49c0,8.65-7.33,14.22-16.86,14.22-7.43,0-13.02-3.03-15.76-8.16-1.48-2.77-4.4-4.45-7.53-4.45h-15.42c1.91,18.33,17.45,28.44,38.42,28.44,22.14,0,37.83-12.46,37.83-31.23v-74.04h-20.67Zm1.03,35.04c-.15,12.9-7.77,21.85-18.62,21.85s-18.62-9.24-18.62-21.85,7.33-20.82,18.62-20.82,18.62,8.21,18.62,19.94v.88Z"/>
        <path class="cls-1" d="m616.15,127.25c-23.31,0-38.71,16.57-38.71,39s15.4,39.29,38.71,39.29,38.85-16.57,38.85-39.29-15.39-39-38.85-39Zm0,61.73c-11.73,0-18.77-9.53-18.77-22.73s7.04-22.43,18.77-22.43,18.92,9.53,18.92,22.43-7.04,22.73-18.92,22.73Z"/>
        <path class="cls-1" d="m695.28,141.47c-7.18,0-11.58,3.37-11.58,7.77,0,5.57,5.13,6.6,15.84,9.09,16.57,3.52,29.32,6.01,29.32,23.02,0,16.13-12.02,24.19-31.67,24.19-21.41,0-33.87-10.26-34.9-28.3h12.08c3.36,0,6.44,1.94,7.82,5.01,2.5,5.56,7.64,8.48,14.7,8.48s12.17-2.35,12.17-8.36c0-5.43-3.81-6.45-16.71-9.24-16.28-3.52-28.01-6.6-28.01-23.02s12.61-22.87,31.08-22.87c19.79,0,30.94,8.65,32.7,25.51h-12.43c-3.22,0-6.2-1.79-7.65-4.67-2.15-4.27-6.32-6.62-12.77-6.62Z"/>
      </g>
      <g>
        <path class="cls-1" d="m248.12,169.78c-13.1-9.16-23.77-7.17-35.35,2.38-28.93,23.85-74.51,33.22-110.05-3.94-6.28-6.57-16.88-7.16-25.06-2.82l-21.72,11.52,4.86,5.5c48.13,74.67,139.12,66.94,201.63,8.42l4.81-5.55-19.12-15.51Z"/>
        <path class="cls-1" d="m248.24,66.79c-13.1,9.16-23.77,7.17-35.35-2.38-28.93-23.85-74.51-33.22-110.05,3.94-6.28,6.57-16.88,7.16-25.06,2.82l-21.72-11.52,4.86-5.5C109.05-20.51,200.05-12.79,262.55,45.74l4.81,5.55-19.12,15.51Z"/>
        <path class="cls-1" d="m20.69,118.81c0-17.81-8.05-33.72-20.69-44.35,10.07-8.47,36.56-9.16,47.44-.92,58,43.92,58,45.27,58,45.27,0,0,0,.74-58,43.42-10.68,7.86-37.36,9.4-47.44.93,12.64-10.63,20.69-26.54,20.69-44.35Z"/>
      </g>
    </g>
  </g>
</svg>