<?xml version="1.0" encoding="UTF-8"?>
<svg id="Capa_2" data-name="Capa 2" xmlns="http://www.w3.org/2000/svg" viewBox="0 0 816.75 311.76">
  <defs>
    <style>
      .cls-1 {
        fill: #fff;
        stroke-width: 0px;
      }
    </style>
  </defs>
  <g id="Capa_1-2" data-name="Capa 1">
    <g>
      <path class="cls-1" d="m32.13,86.79c-2.25,3.86-4.93,7.4-7.26,11.18-6.12,9.95-10.15,20.68-11.4,32.3-1.23,11.41.18,22.6,3.97,33.46,5.21,14.97,13.7,27.96,24.2,39.7,15.52,17.36,34,30.97,54.08,42.51,24.21,13.92,49.96,24.19,76.74,31.95,15.36,4.45,30.92,8.01,46.68,10.7,12.94,2.2,25.95,3.83,39.03,4.97,13.46,1.18,26.92,2.2,40.41,2.77,13.7.59,27.41.7,41.1.32,16.45-.45,32.87-1.39,49.26-3.06,13.72-1.4,27.39-3.08,41.02-5.19,24.55-3.8,48.82-8.9,72.85-15.17,38.07-9.94,75.19-22.7,111.39-38.12,30.23-12.88,59.61-27.47,88.01-44.02,7.73-4.5,15.36-9.17,22.87-14.03.8-.52,1.62-1.03,2.31-1.67,1.88-1.73,1.62-3.17-.75-3.99-1.07-.37-2.21-.62-3.34-.69-6.37-.4-12.73-.21-19.1.29-6.83.54-13.64,1.19-20.44,1.97-8.59.99-17.17,2.08-25.75,3.14-7.64.94-15.28,1.9-22.92,2.82-10,1.21-20.01,2.38-30.06,3.08-4.08.28-8.18.4-12.27.14-1.05-.07-2.09-.11-3.08-.53-.62-.26-1.26-.49-1.36-1.28-.11-.87.38-1.43.99-1.93.71-.57,1.61-.59,2.43-.75,15.6-2.94,31.22-5.83,46.82-8.77,17.66-3.32,35.31-6.69,52.97-10.02,16.35-3.09,32.7-6.15,49.05-9.23,15.79-2.97,31.58-5.94,47.37-8.92.37-.07.74-.19,1.11-.24,2.84-.38,4.42.9,4.41,3.75,0,3.71-.11,7.42-.25,11.13-.28,7.8-.64,15.59-.91,23.39-.65,18.74-1.26,37.47-1.89,56.21-.02.57-.02,1.15-.15,1.7-.37,1.59-1.44,2.57-2.91,2.75-1.47.19-2.84-.46-3.51-1.91-.96-2.07-1.77-4.21-2.64-6.32-5-12.14-9.99-24.27-14.99-36.41-.14-.35-.29-.7-.44-1.05-1.42-3.28-2.18-3.63-5.43-2.31-5.91,2.4-11.57,5.33-17.23,8.27-20.25,10.54-40.42,21.25-61.03,31.08-34.21,16.31-69.26,30.54-105.35,42.17-23.63,7.62-47.55,14.17-71.79,19.56-16.06,3.57-32.19,6.69-48.43,9.29-13.8,2.2-27.65,4.02-41.55,5.46-13.91,1.45-27.83,2.56-41.79,3.34-18.44,1.04-36.9,1.28-55.36,1.11-15.33-.14-30.63-.89-45.91-1.87-5.51-.35-11.02-.52-16.52-.9-10.25-.71-20.46-1.71-30.63-3.15-17.53-2.48-34.84-6.02-51.91-10.71-37.66-10.36-73.41-25.07-106.02-46.85-16.14-10.78-30.91-23.15-43.28-38.22-8.27-10.08-15.01-21.06-19.27-33.45-3.35-9.74-4.87-19.76-4.08-30.05.93-12.06,4.77-23.23,10.84-33.66,5.55-9.53,12.52-17.91,20.4-25.59.2-.19.46-.32.69-.48Z"/>
      <path class="cls-1" d="m572.61,40.46c-1.53,3.08-2.89,5.77-4.21,8.47-10.65,21.76-21.03,43.65-32.48,65.01-2.2,4.11-4.52,8.14-6.96,12.11-1.65,2.68-3.88,3.95-7.06,3.93-6.38-.05-12.75.14-19.13.13-6.36,0-7.99-1.64-7.88-7.96.07-3.99.34-7.98.58-11.97.52-8.66.46-17.31.1-25.97-.03-.76-.06-1.54-.28-2.25-.35-1.09-1.49-1.3-2.21-.4-.52.66-.87,1.47-1.25,2.23-6.88,13.77-13.83,27.51-20.6,41.34-1.68,3.42-3.94,4.97-7.81,4.87-7.32-.2-14.66-.05-21.98-.06-4.16,0-5.24-.97-5.66-5.04-1.45-14.2-2.12-28.46-2.85-42.71-.64-12.54-1.41-25.08-2.14-37.62-.24-4.12-.25-4.12,3.74-4.12,7.04,0,14.09,0,21.13,0,2.79,0,2.81.02,2.81,2.82,0,17.51,0,35.03,0,52.54,0,.86,0,1.71.04,2.57.03.59.23,1.15.87,1.34.72.22,1.31-.04,1.72-.67.56-.88,1.14-1.75,1.65-2.67,6.87-12.49,13.69-25.01,20.6-37.48,2.9-5.24,6.05-10.34,8.95-15.57,1.18-2.13,2.56-3.1,5.16-2.96,4.94.26,9.89.07,14.84.08,3.44,0,3.65.17,3.51,3.52-.27,6.46-.73,12.92-.92,19.39-.29,9.98-.7,19.97.37,29.94.19,1.8.43,3.59,1.08,5.29.28.73.64,1.53,1.45,1.61.88.09,1.23-.73,1.55-1.44,2.01-4.51,4.07-9,6.04-13.53,5.47-12.54,10.79-25.14,16.68-37.5.94-1.97,1.99-3.89,2.96-5.85.52-1.05,1.23-1.48,2.47-1.47,8.18.06,16.37.03,25.11.03Z"/>
      <path class="cls-1" d="m117.15,4.33c11.61,0,20.72,1.12,29.42,4.59,4.77,1.9,5.02,2.33,4.11,7.45-1.21,6.83-2.69,13.6-4.32,20.35-.67,2.78-.86,2.88-3.36,1.63-6.85-3.43-14-5.82-21.64-6.8-22.63-2.91-44.21,11.91-49.08,34.21-3.52,16.15,4.02,30.1,21.08,35.2,7.38,2.2,14.94,2.67,22.59,2.01,4.65-.4,9.26-.98,13.84-1.89,2.15-.43,2.64.03,2.24,2.22-1.14,6.26-2.37,12.51-3.61,18.76-.91,4.54-.94,4.54-5.63,5.4-11.69,2.16-23.44,2.64-35.21.89-9.61-1.43-18.69-4.38-26.6-10.26-8.8-6.54-14.08-15.4-16.32-25.99-3.06-14.44-2.28-28.79,2.52-42.76,5.81-16.9,17.33-28.8,33.32-36.46,12.3-5.9,25.35-8.46,36.63-8.53Z"/>
      <path class="cls-1" d="m645.56,40.75c3.62,0,7.23-.03,10.85.01,2.08.02,2.38.26,2.17,2.34-.23,2.36-.73,4.69-1.13,7.03-.13.75-.32,1.49-.43,2.24-.12.8.04,1.53.77,2.01.83.55,1.44.02,2.03-.46,1.33-1.07,2.63-2.2,3.99-3.24,4.86-3.71,10-6.93,15.93-8.69,6.82-2.02,13.57-1.64,20.1,1.02,9.29,3.78,12.5,12.37,11.61,21.07-.3,2.95-1.28,5.73-1.97,8.59-2.52,10.33-4.92,20.7-7.4,31.04-1.89,7.85-4.03,15.62-6.81,23.22-.66,1.8-1.6,2.89-3.61,3.06-5.88.49-11.75.98-17.66.79-.67-.02-1.33-.04-1.99-.12-2.33-.27-2.51-.54-2.16-2.85,2.08-13.53,5.03-26.9,7.29-40.39,1.12-6.66,2.14-13.34,1.51-20.14-.52-5.7-2.32-6.8-7.63-4.65-3.82,1.55-6.72,4.25-9.31,7.34-5.24,6.27-8.85,13.49-12.03,20.93-4.94,11.56-8.53,23.56-11.6,35.73-.64,2.52-1.47,3.36-3.85,3.4-6.75.12-13.48.81-20.24.12-4.82-.49-5.01-.52-3.67-4.96,4.17-13.92,8.47-27.8,12.6-41.73,3.18-10.75,6.25-21.53,8-32.63.37-2.34.38-4.74.68-7.09.36-2.83.57-2.97,3.42-2.99,3.52-.02,7.04,0,10.56,0Z"/>
      <path class="cls-1" d="m389.36,129.57c-9.83-.08-19.48-1.71-29.13-3.36-1.21-.21-1.59-.87-1.77-1.86-.27-1.53.07-3.03.23-4.54.42-3.89,1.47-7.64,2.39-11.42.36-1.47,1.21-2.04,2.65-1.95,2.01.13,3.93.6,5.84,1.21,4.43,1.42,8.8,3.05,13.41,3.81,3.13.52,6.24.59,9.32-.31,1.58-.46,2.99-1.22,4.24-2.27,2.61-2.22,2.82-4.56.65-7.18-1.48-1.79-3.37-3.08-5.42-4.1-2.55-1.27-5.17-2.39-7.75-3.6-3.36-1.58-6.6-3.36-9.45-5.79-5.29-4.52-7.84-10.36-8.4-17.19-.75-9.09,2.91-16.29,9.64-22.08,5.77-4.97,12.59-7.73,20.04-8.97,8.54-1.43,16.83-.35,24.96,2.5,1.8.63,2.58,1.58,2.77,3.42.52,5.04.17,10.07.04,15.11-.04,1.62-.75,2.01-2.59,1.54-3.96-1.01-7.95-1.86-12-2.43-2.27-.32-4.55-.42-6.83-.23-7.98.64-9.08,6.61-6.71,12.28.9,2.15,2.75,3.6,4.65,4.91,2.44,1.67,5.09,2.96,7.71,4.3,2.88,1.47,5.72,3,8.31,4.97,4.21,3.2,6.91,7.33,7.47,12.63.54,5.16.07,10.28-1.78,15.16-2.62,6.91-7.9,10.97-14.76,13.19-5.77,1.87-11.71,2.41-17.74,2.27Z"/>
      <path class="cls-1" d="m356.45,53.78c0,2.19.05,4.38-.01,6.56-.06,2.29-.59,2.7-2.8,2.15-3.87-.96-7.77-1.81-11.72-2.37-2.37-.34-4.75-.48-7.11-.23-6.32.68-8.78,4.35-7.13,10.83.61,2.4,2.31,4.12,4.22,5.59,2.11,1.64,4.48,2.86,6.85,4.08,3.05,1.56,6.1,3.09,8.94,5.02,6.06,4.11,9.14,9.73,8.88,17.13-.1,2.86-.34,5.68-1,8.48-1.69,7.19-6.01,12.14-12.69,15.12-5.02,2.24-10.35,3.11-15.79,3.37-10.04.48-19.92-.92-29.77-2.56-1.31-.22-2.61-.61-3.93-.68-1.63-.09-2.17-.96-2.17-2.39,0-1.23,0-2.48.15-3.7.5-3.96,1.39-7.86,2.48-11.7.53-1.86.92-2.1,2.85-2.03,1.91.08,3.74.59,5.56,1.17,4.52,1.44,8.98,3.13,13.69,3.88,3.13.5,6.25.56,9.32-.41,2.03-.64,3.83-1.69,5.18-3.37,1.19-1.48,1.3-3.1.37-4.78-.95-1.72-2.41-2.92-4-3.99-2.29-1.55-4.82-2.64-7.34-3.76-3.65-1.62-7.21-3.37-10.51-5.68-10.96-7.67-12.8-23.74-6.59-33.43,4.74-7.4,11.58-11.94,19.78-14.56,10.73-3.43,21.35-2.7,31.87,1.09,1.65.59,2.27,1.67,2.33,3.17.09,2.66.03,5.32.03,7.98.02,0,.04,0,.07,0Z"/>
      <path class="cls-1" d="m176.93,47.95c8.36-6.91,17.71-8.18,27.63-7,2.64.31,3.28,1.24,2.93,3.86-.89,6.69-1.93,13.36-2.85,20.05-.23,1.67-1.22,1.91-2.61,1.86-3.42-.13-6.82-.11-10.23.47-11.86,2.01-19.43,8.9-23.23,20.15-1.74,5.16-2.35,10.57-3.36,15.88-1.57,8.21-3.07,16.44-4.51,24.68-.26,1.51-.85,2.14-2.4,2.11-6.56-.09-13.12.41-19.68-.4-5.61-.69-5.8-.75-4.77-6.18,1.98-10.46,4.47-20.81,6.91-31.17,1.94-8.23,4.1-16.41,5.93-24.66,1.09-4.92,1.26-9.99,1.85-15,.37-3.21.74-6.42,1.22-9.62.41-2.74,1.16-3.35,3.98-3.36,7.23-.03,14.47-.03,21.7,0,2.12,0,2.25.16,2.1,2.31-.13,1.89-.37,3.78-.6,6.02Z"/>
      <path class="cls-1" d="m592.23,40.91c3.61,0,7.22,0,10.83,0,1.84,0,2.24.39,1.84,2.2-.71,3.15-1.53,6.27-2.38,9.39-2.79,10.27-5.46,20.56-7.5,31-1.17,5.97-2.17,11.97-2.33,18.08-.06,2.47-.04,4.95.68,7.35.64,2.13,1.03,2.43,3.21,2.4,3.23-.04,6.47-.17,9.7-.12,4.74.08,4.89.34,3.49,4.88-1.04,3.36-2.14,6.7-3.04,10.09-.4,1.5-1.24,2.23-2.63,2.63-1.93.56-3.91.79-5.91.89-6.08.31-12.16.49-18.24-.12-2.01-.2-3.94-.71-5.78-1.47-6.24-2.59-9.44-7.36-9.86-14.07-.17-2.69.24-5.31.71-7.93,3.09-17.21,6.2-34.41,9.3-51.61.69-3.83,1.42-7.66,2.03-11.5.22-1.37.85-1.91,2.2-2.09,4.55-.6,9.12-.35,13.68-.01Z"/>
      <path class="cls-1" d="m611.81,12.36c-.04,7.75-7.29,16.06-14.96,17.16-8.31,1.18-15.33-6.19-13.79-14.48,1.29-6.92,7.37-13.03,13.95-14.72,7.41-1.9,15.48,5.08,14.8,12.04Z"/>
      <path class="cls-1" d="m814.4,2.2c-7.32-.17-14.65-.3-21.97-.41-2.38-.04-2.4.01-3.05,2.45-1.3,4.87-2.07,9.85-2.85,14.82-1.11,7.04-2.07,14.1-3.21,21.14-.64,3.96-.74,3.89-4.79,3.45-13.15-1.43-25.83.32-37.78,6.13-24.86,12.07-34.43,36.75-27.41,60.91,2.85,9.81,8.94,16.4,19.24,18.53,3.94.82,7.92.93,11.92.61,4.85-.4,9.61-1.29,14.29-2.55,1.23-.33,2.19-.56,3.11.83.66,1,2.07,1.24,3.3,1.51,4.59.98,9.24,1.08,16.04,1,2.82-.13,7.76-.36,12.7-.6,3.04-.14,3.07-.14,3.51-3.21.93-6.45.54-12.92.13-19.37-.26-4.21-.03-8.36.62-12.5,1.75-11.17,3.95-22.26,6.27-33.33,3.95-18.88,8.07-37.72,12.11-56.57.47-2.21.09-2.77-2.17-2.82Zm-49.87,98.78c-1.53,2.75-3.35,5.33-5.76,7.38-2.39,2.04-5.02,3.43-8.35,2.39-1.31-.41-2.4-1.1-3.36-2.05-2.8-2.77-4.5-6.18-5.02-10.01-1.78-13.26,2.38-24.6,11.91-33.82,4.45-4.31,9.95-6.12,16.27-4.62,1.76.42,2.59,1.32,2.89,3.01.34,1.89.21,3.79.26,5.68-.04,11.48-3.3,22.08-8.85,32.03Z"/>
      <path class="cls-1" d="m292.76,68.03c-3.37-13.24-11.6-22.16-24.27-27.07-14.71-5.7-28.69-4.47-41.73,4.65-17.24,12.05-26.91,36.03-24.01,55.42,2.11,14.14,9.36,24.53,22.39,30.53,17.37,7.99,34.93,5.7,49.02-7.16,13.11-11.97,19.33-27.19,20.07-44.77,0-3.94-.5-7.81-1.47-11.6Zm-34.23,34.21c-4.06,5.15-9.36,8.31-16.11,8.39-7.77.09-14.17-5.16-14.92-12.87-1.21-12.37,2.87-22.82,12.71-30.68,3.89-3.11,8.41-4.73,13.49-4.52,5.78.24,10.29,3.72,11.95,9.29.63,2.11.94,4.26.93,6.49-.65,8.64-2.54,16.92-8.04,23.9Z"/>
    </g>
  </g>
</svg>