<?xml version="1.0" encoding="UTF-8"?>
<svg id="Capa_2" data-name="Capa 2" xmlns="http://www.w3.org/2000/svg" viewBox="0 0 630.31 296.94">
  <defs>
    <style>
      .cls-1 {
        fill: #fff;
        stroke-width: 0px;
      }
    </style>
  </defs>
  <g id="Capa_1-2" data-name="Capa 1">
    <g>
      <g>
        <g>
          <path class="cls-1" d="m251.2,294.43h-65.19c-4.94,0-8.94-4.36-8.94-9.74V109.55c0-4.09,3.02-7.56,7.08-8.12,19.02-3.92,38.27-6.54,57.75-7.94,4.92-.68,9.31,3.15,9.31,8.12v192.83Z"/>
          <path class="cls-1" d="m10.84,31.54c-5.98,0-10.84,5.44-10.84,12.15v38.5c0,6.71,4.46,9.34,10.45,9.34l50.39.08h1.22c4.53,0,8.2,3.67,8.2,8.19v184.15c0,5.38,4.01,9.74,8.95,9.74h65.19V95.6c0-3.24,1.89-6.2,4.86-7.49,36.39-15.8,268.23-46.47,480.6,10.68,1.27-34.66-8.75-45.55-58.96-63.22C288.13-52.82,94.63,54.18,10.84,31.54Z"/>
        </g>
        <path class="cls-1" d="m389.65,87.86c-4.57,0-8.83,6.39-9.28,10.94l-8.89,118.91c0,4.26-2.83,6.43-5.71,6.48-2.95.06-5.94-2.1-5.94-6.48l-9.28-118.95c-.47-4.53-4.48-11.19-9.04-11.19-23.39.23-47.37,1.36-71.82,3.21l-.07.1,40.12,195.83c.78,3.81,4.14,6.55,8.03,6.55h95.66c3.9,0,7.26-2.75,8.03-6.57l39.3-194.9c-23.3-1.74-47-3.05-71.11-3.92Z"/>
      </g>
      <path class="cls-1" d="m630.31,295.46h-64.14c-.73-3.69-1.32-7.54-1.77-11.53-.46-3.99-.68-8.8-.68-14.45h-2.46c0,4.09-1.73,5.32-4.37,10.09-2.64,4.77-6.87,8.86-12.69,12.26-5.83,3.4-13.65,5.11-23.47,5.11-13.47,0-24.11-2.44-31.94-7.3-7.83-4.86-13.37-11.14-16.65-18.83-3.28-7.68-4.5-12.81-4.5-21.76v-14.01c0-18.68,5.46-32.3,16.38-40.86,10.92-8.56,29.39-12.84,55.41-12.84,3.64,0,7.32.1,11.05.29,3.73.2,7.69.49,11.87.88.36-3.31,3.67-13.97-5.46-16.84-37.33-11.72-72.85,3.25-76.32,4.8-5.46,2.44-8.04-19.17-7.94-25.15l.66-43.1c.07-4.78,4.21-8.49,8.98-8.03,26.06,2.53,97.22,11.49,132.33,31.89,15.11,8.78,13.27,26.46,13.27,47.08v88.44c.55,11.48,1.36,22.77,2.46,33.86Zm-73.42-54.87v-18.39c0-.78-.32-2.28-.96-4.52-.64-2.23-2.78-3.36-6.41-3.36s-5.78,1.12-6.41,3.36c-.64,2.24-.96,3.75-.96,4.52v18.39c0,.58.32,2.04.96,4.38.64,2.34,2.77,3.5,6.41,3.5s5.77-1.17,6.41-3.5c.64-2.34.96-3.79.96-4.38Z"/>
    </g>
  </g>
</svg>