<?xml version="1.0" encoding="UTF-8"?>
<svg id="Capa_2" data-name="Capa 2" xmlns="http://www.w3.org/2000/svg" viewBox="0 0 435.12 224.85">
  <defs>
    <style>
      .cls-1 {
        fill: #fff;
        stroke-width: 0px;
      }
    </style>
  </defs>
  <g id="Capa_1-2" data-name="Capa 1">
    <g>
      <polygon class="cls-1" points="232.75 224.7 164.33 224.7 127.84 174.83 127.31 174.11 121.67 166.44 156.89 118.33 158.66 120.78 166.76 132.15 167.48 133.14 232.75 224.7"/>
      <polygon class="cls-1" points="232.75 .15 205.9 36.87 200.2 44.66 159.02 100.91 158.99 100.95 157.2 103.4 121.84 53.92 123.65 51.38 160.17 .15 232.75 .15"/>
      <polygon class="cls-1" points="72.8 .15 116.43 61.37 116.48 61.42 132.66 84.11 132.75 84.23 139.54 93.75 151.75 110.81 151.72 110.84 116.45 159.05 111.87 165.31 68.44 224.7 0 224.7 81.2 110.84 .22 .15 72.8 .15"/>
      <rect class="cls-1" x="232.75" width="63.61" height="224.85"/>
      <path class="cls-1" d="m423.08,38.71c-8.03-12.52-19.54-22.1-34.53-28.75-15-6.63-32.76-9.96-53.33-9.96h-30.11v50.11h26.26c13.28,0,23.24,2.95,29.87,8.84,6.63,5.89,9.96,13.87,9.96,23.93s-3.32,18.59-9.96,24.26c-6.63,5.67-16.59,8.51-29.87,8.51h-26.26v50.43h30.11c20.57,0,38.33-3.38,53.33-10.12,14.99-6.75,26.49-16.27,34.53-28.59,8.03-12.32,12.04-27.15,12.04-44.5s-4.01-31.64-12.04-44.16Z"/>
    </g>
  </g>
</svg>